<?xml version="1.0" encoding="utf-8"?>
<!-- Generator: Adobe Illustrator 16.0.0, SVG Export Plug-In . SVG Version: 6.00 Build 0)  -->
<!DOCTYPE svg PUBLIC "-//W3C//DTD SVG 1.1//EN" "http://www.w3.org/Graphics/SVG/1.1/DTD/svg11.dtd">
<svg version="1.1" id="Layer_1" xmlns="http://www.w3.org/2000/svg" xmlns:xlink="http://www.w3.org/1999/xlink" x="0px" y="0px"
	 width="1000px" height="224.605px" viewBox="0 0 1000 224.605" enable-background="new 0 0 1000 224.605" xml:space="preserve">
<g>
	<rect y="0.031" fill="#FFBD00" width="57.283" height="224.543"/>
	<path fill="#FFBD00" d="M147.538,93.323h-7.527V42.256h7.527V93.323z M204.822,16.723c-18.17-18.167-66.123-16.694-66.123-16.694
		H84.69v224.545h55.32v-79.865h7.859v79.865h56.624v-94.922c0-3.933-8.838-10.476-8.838-10.476c3.273-3.274,9.166-9.82,9.166-9.82
		V16.723z"/>
	<polygon fill="#FFBD00" points="378.969,224.574 378.969,0.031 430.881,0.031 442.633,40.196 442.633,0.031 500.088,0.031 
		500.088,224.574 448.51,224.574 435.12,183.842 435.12,224.574 	"/>
	<polygon fill="#FFBD00" points="878.882,224.574 878.882,0.031 930.791,0.031 942.543,40.196 942.543,0.031 1000,0.031 
		1000,224.574 948.42,224.574 935.037,183.842 935.037,224.574 	"/>
	<polygon fill="#FFBD00" points="650.365,0.031 630.465,49.953 610.566,0.031 557.623,0.031 557.623,224.574 613.307,224.574 
		613.307,127.205 625.475,152.457 629.977,152.457 630.955,152.457 635.457,152.457 647.624,127.205 647.624,224.574 
		703.309,224.574 703.309,0.031 	"/>
	<path fill="#FFBD00" d="M795.419,94.229h-7.518V43.84h7.518V94.229z M791.393,0.031c-45.16,0-59.523,16.36-59.523,16.36v208.183
		h54.527v-79.202h4.996h5v79.202h54.523V16.392C850.916,16.392,836.553,0.031,791.393,0.031"/>
	<path fill="#FFBD00" d="M288.648,43.763h7.188V180.86h-7.188V43.763z M297.326,0.099c-1.476-0.042-2.954-0.07-4.432-0.07
		c-1.476,0-2.959,0.029-4.427,0.07c-47.149,0.78-56.296,18.771-56.296,18.771v2.335v182.221v2.339c0,0,9.146,17.989,56.296,18.771
		c1.468,0.039,2.951,0.068,4.427,0.068c1.478,0,2.956-0.029,4.432-0.068c47.138-0.782,56.289-18.771,56.289-18.771v-2.339V21.206
		V18.87C353.615,18.87,344.464,0.879,297.326,0.099"/>
	<rect x="6.791" y="6.818" fill="#B01B1E" width="43.696" height="210.963"/>
	<path fill="#B01B1E" d="M140.014,35.47h7.527h6.787v6.784V93.32v6.792h-6.787h-7.527h-6.787V93.32V42.253V35.47H140.014z
		 M197.707,132.786c-4.146-6.221-16.99-12.854-16.99-12.854s15.354-8.355,17.316-14.774V21.664
		c-11.866-9.513-31.522-14.87-56.74-14.87c-1.474,0-2.328,0.022-2.389,0.022l-0.099,0.004h-0.1H91.485v210.964h41.741v-73.081
		v-6.787h6.787h7.854h6.792v6.787v73.081h43.048V132.786z"/>
	<polygon fill="#B01B1E" points="453.415,217.784 493.297,217.784 493.297,6.82 449.418,6.82 449.418,40.191 449.72,94.77 
		425.795,6.82 385.761,6.82 385.761,217.784 428.333,217.784 428.333,183.836 428.333,132.234 	"/>
	<polygon fill="#B01B1E" points="953.331,217.784 993.214,217.784 993.214,6.82 949.335,6.82 949.335,40.191 949.636,94.77 
		925.704,6.82 885.67,6.82 885.67,217.784 928.243,217.784 928.243,183.836 928.243,132.234 	"/>
	<polygon fill="#B01B1E" points="654.418,127.208 654.418,217.784 696.52,217.784 696.52,6.818 654.967,6.818 636.773,52.472 
		630.467,68.292 624.161,52.472 605.963,6.818 564.415,6.818 564.415,217.784 606.519,217.784 606.519,127.208 606.519,92.047 
		629.74,145.667 629.977,145.667 630.952,145.667 631.189,145.667 654.714,92.047 	"/>
	<path fill="#B01B1E" d="M787.901,37.052h7.518h6.791v6.791v50.389v6.792h-6.791h-7.518h-6.792v-6.792V43.842v-6.791H787.901z
		 M844.126,19.467c-4.809-3.64-20.033-12.646-52.733-12.646c-32.704,0-47.924,9.011-52.732,12.646v198.317h40.948v-72.409v-6.797
		h6.791h4.993h4.997h6.79v6.797v72.409h40.946V19.467z"/>
	<path fill="#B01B1E" d="M288.651,37.962h7.188h5.801v5.806v137.098v5.803h-5.801h-7.188h-5.806v-5.803V43.768v-5.806H288.651z
		 M292.896,218.798c1.418,0,2.843-0.023,4.333-0.068c36.068-0.595,47.925-11.635,50.579-14.774v-0.528V21.208V20.71
		c-2.79-3.294-14.718-14.211-50.654-14.805c-1.415-0.042-2.84-0.07-4.258-0.07c-1.42,0-2.845,0.029-4.335,0.07
		c-36.073,0.599-47.934,11.634-50.584,14.774v0.529v182.219v0.496c2.785,3.3,14.724,14.212,50.659,14.807
		C290.052,218.774,291.477,218.798,292.896,218.798"/>
</g>
</svg>
